<?xml version="1.0" encoding="UTF-8"?>
<svg xmlns="http://www.w3.org/2000/svg" xmlns:xlink="http://www.w3.org/1999/xlink" version="1.1" viewBox="0 0 1226.77 1225.54">
  <defs>
    <style>
      .cls-1, .cls-2 {
        fill: none;
      }

      .cls-3 {
        fill: #2b2b2b;
      }

      .cls-4 {
        fill: #231f20;
      }

      .cls-5 {
        opacity: .18;
      }

      .cls-5, .cls-6 {
        fill: #f39422;
      }

      .cls-7 {
        fill: #f39423;
      }

      .cls-8 {
        clip-path: url(#clippath-1);
      }

      .cls-2 {
        stroke: #58595b;
        stroke-miterlimit: 10;
        stroke-width: 2px;
      }

      .cls-9 {
        clip-path: url(#clippath);
      }
    </style>
    <clipPath id="clippath">
      <rect class="cls-1" x="-168.8" y="1946.31" width="440.37" height="97.63"/>
    </clipPath>
    <clipPath id="clippath-1">
      <rect class="cls-1" x="-168.8" y="1946.31" width="440.37" height="97.63"/>
    </clipPath>
  </defs>
  <!-- Generator: Adobe Illustrator 28.6.0, SVG Export Plug-In . SVG Version: 1.2.0 Build 709)  -->
  <g>
    <g id="Layer_1">
      <path class="cls-5" d="M563.75,1764.84c21.06-51.51,80.07-106.29,30.02-163.01-49.7-56.34-110.41-8.11-165.27,8.05-144.9,42.68-291.19,81.42-433.92,130.47-93.83,32.25-146.19,18.11-164.81-87.49-9.45-53.57-11.36-140.22-98.02-115.53-84.81,24.17-48.4,101.2-23.84,150.05,51.04,101.5,20.59,147.43-85.33,162.73-31.13,4.5-61.98,17.49-90.58,31.44-52.72,25.72-147.24,2.33-145.35,93.92,1.66,80.46,87.12,89.53,143.24,106.4,245.94,73.93,419.2,207.48,442.62,484.04,3.77,44.56,26.45,87.38,39.11,131.37,9.67,33.59,27.4,58.23,64.45,61.04,38.05,2.89,58.31-22.42,72.51-52.68,17.51-37.29,37.05-74.33,48.6-113.57,40.33-137.15,105.8-205.94,246.29-102.78,17.04,12.51,41.91,14.35,50.77,17.18,46.19-7.13,62.91-27.21,64.02-58.16,1.88-52.38-38.09-73.16-77.49-83.02-139.56-34.94-152.13-104.56-84.77-224.49,66.94-119.18,115.81-248.87,167.75-375.94ZM-337.92,1991.98q115.25-50.78,146.38,58.34c-57.05.13-100.97-27.1-146.38-58.34ZM85.57,2554.45c-32.45-100.14-64.07-199.34-102.2-296.81,16.14,8.71,181.91,120.1,184.12,117.32-38.4,53.89-66.37,115.18-81.92,179.49ZM234.54,2186.09c-28.09,59.52-210.35,9.76-257.08-68.19-92.33-154.02-72.78-209.2,97.15-263.28,107.17-34.11,215.57-64.35,352.24-104.87-71.62,163.75-128.7,301.59-192.31,436.35Z"/>
      <g class="cls-9">
        <g class="cls-8">
          <path class="cls-3" d="M160.07,2019.87c-9.46,4.44-17.78,3.86-24.5-3.79-5.74-6.54-6.06-16.87-1.34-24.74,4.93-8.23,14.06-11.25,22.69-7.28,2.08.96,3.31,1.23,5.48-.26,4.47-3.06,8.34-1.01,8.4,4.52.14,12.78.19,25.57-.42,38.33-.37,7.77-4.96,13.27-12.36,15.89-7.66,2.71-14.93,1.43-21.37-3.44-2.68-2.03-4.18-4.97-1.62-8.17,2.47-3.08,4.96-1.89,7.54.23,4.09,3.35,8.73,4.31,13.37,1.33,4.3-2.76,5.92-6.82,4.13-12.62M160.97,2003.94c.13-6.47-4.16-11.54-9.54-11.8-5.39-.26-10.05,4.11-10.29,9.66-.26,6.01,4.48,11.36,10.22,11.15,5.97-.22,9.03-3.71,9.62-9.01"/>
          <path class="cls-7" d="M-111.23,1986.83c10.01-6.26,14.6-5.93,22.13,1.69,1.91-1.43,3.76-3.1,5.86-4.32,8.69-5.05,19.32.45,20.37,10.95.75,7.48.38,15.07.52,22.61.07,3.62-2.2,4.7-5.28,4.71-3.26.01-5.04-1.52-4.99-4.98.07-5.87-.05-11.74.06-17.6.08-4.53-1.22-7.91-6.37-8.16-5.21-.25-7.84,3.1-8.29,7.6-.57,5.6-.31,11.3-.17,16.96.09,3.71-.82,6.24-5.1,6.13-4.09-.1-4.5-2.87-4.49-6.09.02-5.65-.05-11.31-.18-16.97-.09-4.21-1.58-7.6-6.42-7.61-5.1-.02-7.61,3.21-7.83,7.98-.25,5.43-.1,10.89.04,16.34.09,3.62-.74,6.31-5.01,6.31-4.23,0-5.15-2.65-5.12-6.27.07-8.38.03-16.76,0-25.15-.01-3.16-.47-6.45,3.49-7.82,3.57-1.24,5.23,1.28,6.77,3.69"/>
          <path class="cls-7" d="M-150.29,2023.5c-5.62.12-10.77-1.52-15.4-4.59-2.7-1.78-4.2-4.41-2.19-7.49,1.89-2.9,4.6-3.3,7.62-1.36,3.99,2.56,8.32,3.94,13.13,3.23,3.75-.56,7-2.03,7.82-6.12.78-3.92-1.69-6.4-4.85-7.94-3.56-1.74-7.34-3.04-11.01-4.55-9.07-3.72-13.09-10.3-11.67-19.07,1.27-7.82,7.95-13.2,17.07-13.93,5.12-.41,10.1.03,14.65,2.48,2.73,1.47,5.98,3.3,3.92,7.24-1.76,3.37-4.79,3.67-8.08,1.95-2.85-1.49-5.95-2.08-9.11-1.9-3.76.21-7.21,1.39-8.03,5.64-.76,3.97,1.76,6.25,5,7.77,2.84,1.34,5.76,2.48,8.64,3.72,11.52,4.97,15.58,10.9,13.83,20.17-1.69,8.98-10.06,14.76-21.35,14.75"/>
          <path class="cls-7" d="M4.52,1987.07c7.78-5.93,9.55-6.04,14.34-1.22,1.49-2.3,4-2.71,6.22-2.86.25-.95.39-1.35.45-1.75.57-3.98-2.07-10.02,4.54-10.57,6.77-.56,5.45,5.44,5.7,9.59.18,3.01,1.81,3.21,4.21,3.03,2.96-.22,4.82,1.16,4.86,4.35.04,3.07-1.43,4.82-4.58,4.57-4.08-.33-4.79,1.73-4.67,5.31.22,6.48-.04,12.98-.05,19.48,0,3.15-1,5.31-4.61,5.34-3.77.04-5.23-1.96-5.14-5.52.07-2.72.21-5.46-.04-8.17-.67-7.17,3.48-16.21-8.21-19.01-.1.11-.86,1.73-1.74,1.8-13.42,1.12-11.87,10.83-11.56,19.86.04,1.26-.01,2.52.06,3.77.24,3.93-.23,7.37-5.34,7.26-4.83-.11-4.85-3.6-4.83-7.14.06-8.38-.01-16.76.08-25.13.03-2.58-.86-5.62,2.67-6.95,3.84-1.45,5.73,1.04,7.63,3.98"/>
          <path class="cls-7" d="M-25.47,1986.53c2.08-2.47,4.23-5.11,7.88-3.38,3.4,1.62,2.47,4.93,2.46,7.78-.02,7.96-.07,15.93-.09,23.9,0,2.94.4,6.22-3.29,7.28-3.14.91-5.72-.21-6.7-3.62-10.97,6.2-18.8,5.27-25.51-2.74-5.98-7.14-5.93-18.81.11-26.11,6.75-8.15,14.45-9.24,25.15-3.12M-24.73,2002.98c-.05-6.23-4.52-10.9-10.42-10.9-5.58,0-10.22,4.71-10.28,10.4-.06,6.25,4.43,10.92,10.42,10.85,5.74-.07,10.32-4.69,10.28-10.36"/>
          <path class="cls-3" d="M125.74,2002.73c.12,10.6-9.17,19.96-19.99,20.16-10.87.2-20.29-9.07-20.62-20.29-.31-10.6,8.97-20.35,19.59-20.58,10.98-.24,20.89,9.53,21.02,20.71M115.56,2002.55c-.14-5.96-4.7-10.51-10.29-10.28-5.79.24-10.32,5.02-10.04,10.6.27,5.53,5.29,10.25,10.71,10.07,5.14-.16,9.75-5.14,9.62-10.39"/>
          <path class="cls-3" d="M213.69,2009.92c-2.85,3.78-5.03,6.84-7.38,9.76-2.23,2.78-5.18,3.99-8.2,1.61-2.92-2.31-.99-4.9.54-7.19q7.92-11.86.04-23.77c-1.48-2.22-2.93-4.51-.22-6.59,2.48-1.91,5.22-1.54,7.33.79,2.63,2.9,5.04,5.98,7.55,8.99,3.91-2.23,5.14-6.11,7.78-8.73,1.9-1.88,3.94-3.52,6.57-1.64,2.68,1.91,3.24,4.94.87,7.04-9.47,8.42-7.81,16.28.27,24.47,1.98,2,2.68,5.03-.49,7.02-2.79,1.75-5.26.73-7.15-1.69-2.42-3.12-4.73-6.32-7.52-10.06"/>
          <path class="cls-3" d="M50.6,1992.59c0-7.95,0-15.9,0-23.85,0-3.49,1.04-6.52,5.08-6.5,3.94.01,5.21,2.86,5.2,6.44-.02,12.35.16,24.7-.13,37.04-.11,4.8,1.06,7.04,6.27,6.42,3.72-.45,7.52-.22,11.28-.25,3.57-.03,5.55,1.81,5.52,5.36-.03,3.27-2.01,4.97-5.22,5-7.74.06-15.48.08-23.22,0-4.2-.04-5.09-2.91-5.08-6.42.01-7.74,0-15.48,0-23.22h.3"/>
          <path class="cls-3" d="M179.59,2002.64c0-4.81-.1-9.62.03-14.43.1-3.45,2.09-5.55,5.54-5.51,3.36.04,4.69,2.41,4.69,5.5.02,9.62-.06,19.24-.07,28.86,0,3.21-1.36,5.34-4.7,5.43-3.52.09-5.45-1.92-5.52-5.42-.1-4.81-.02-9.62-.02-14.43h.04"/>
          <path class="cls-7" d="M185.22,1963.73c3.33.79,5.45,2.83,5.26,6.45-.18,3.45-2.45,5.31-5.78,5.07-3.13-.23-5.67-1.97-5.52-5.49.15-3.51,2.3-5.6,6.03-6.03"/>
          <path class="cls-7" d="M268.24,1964.03c1.41-2.12,4.54-4.04,2.81-7.03-1.72-2.97-4.87-1.36-7.47-1.13-6.87.6-13.77,1.02-20.6,1.92-4.49.6-6.71-.51-6.59-5.4.06-2.48.76-6.38-3.35-6.06-4.02.32-3.08,4.09-2.42,6.5,1.37,5-.41,6.79-5.29,6.52-1.43-.08-2.93.22-4.34.59-2.59.68-6.61-1.23-7.36,2.89-.65,3.62,3.09,4.79,5.45,6.06,10.34,5.53,16.89,13.07,15.45,25.67-.23,2.03.4,4.15.57,6.23.13,1.59.7,2.86,2.33,3.31,1.68.47,2.81-.48,3.72-1.7,1.12-1.51,2.33-2.99,3.2-4.65,3.04-5.78,6.6-8.26,11.95-2.38.65.71,1.75,1.02,2.12,1.23,2.13.1,3.06-.65,3.39-2.03.56-2.33-1.05-3.62-2.72-4.42-5.93-2.82-5.87-6.05-1.77-10.81,4.07-4.73,7.43-10.1,10.9-15.32M225.82,1966.05q5.62-1.23,6.03,3.93c-2.55-.51-4.27-2.12-6.03-3.93M239.71,1995.06c-.55-4.78-1.07-9.5-1.9-14.21.64.54,7.06,7.02,7.18,6.91-2.21,2.07-4.01,4.56-5.29,7.3M249.7,1979.91c-1.79,2.41-9.51-1.46-10.89-5.37-2.74-7.73-1.37-10.02,6.73-10.91,5.11-.56,10.23-.94,16.72-1.52-4.69,6.68-8.48,12.34-12.55,17.8"/>
        </g>
      </g>
      <rect class="cls-1" x=".66" y="1672.18" width="1038.43" height="673.29"/>
      <line class="cls-2" x1="519.88" y1="2382.92" x2="519.88" y2="1672.18"/>
      <g>
        <path class="cls-4" d="M-168.63,2036.8v-1.45h7.74v1.45h-7.74ZM-165.54,2045.55v-9.52h1.57v9.52h-1.57Z"/>
        <path class="cls-4" d="M-159.39,2045.55v-10.2h1.44v3.87h0c.23-.38.56-.68.99-.92.43-.24.9-.36,1.41-.36.84,0,1.49.26,1.95.77.47.51.7,1.19.7,2.03v4.8h-1.46v-4.47c0-.55-.13-.98-.4-1.31-.27-.33-.68-.5-1.25-.5-.53,0-.98.19-1.36.58-.38.39-.57.88-.57,1.48v4.22h-1.47Z"/>
        <path class="cls-4" d="M-147.44,2045.71c-1.09,0-2.01-.37-2.75-1.1-.75-.73-1.12-1.66-1.12-2.78s.37-2.05,1.11-2.78,1.65-1.1,2.71-1.1,1.97.34,2.64,1.01c.67.67,1.01,1.53,1.01,2.56v.66h-6.72v-1.02h5.3c-.02-.56-.24-1.02-.64-1.38-.41-.37-.93-.55-1.58-.55s-1.25.25-1.73.74c-.48.49-.71,1.12-.71,1.88s.25,1.42.76,1.9c.51.48,1.09.73,1.76.73.35,0,.65-.05.91-.15.26-.1.5-.24.71-.43s.43-.46.65-.82l1.13.55c-.27.52-.57.92-.89,1.21s-.69.51-1.09.66c-.41.15-.9.22-1.46.22Z"/>
        <path class="cls-4" d="M-138.4,2045.55v-10.2h1.57v8.75h4.67v1.45h-6.24Z"/>
        <path class="cls-4" d="M-127.33,2045.71c-1.11,0-2.03-.38-2.77-1.13-.74-.75-1.11-1.67-1.11-2.75s.37-1.99,1.11-2.75c.74-.75,1.66-1.13,2.76-1.13s2.03.38,2.77,1.14c.75.76,1.12,1.67,1.12,2.74s-.37,1.99-1.12,2.75-1.67,1.13-2.78,1.13ZM-127.33,2044.34c.67,0,1.24-.24,1.72-.71.48-.48.72-1.07.72-1.79s-.24-1.32-.72-1.79-1.05-.71-1.72-.71-1.24.24-1.71.71c-.48.47-.72,1.07-.72,1.79s.24,1.31.71,1.79c.47.48,1.05.71,1.72.71Z"/>
        <path class="cls-4" d="M-118.34,2048.48c-.57,0-1.08-.07-1.51-.2-.43-.13-.81-.32-1.13-.57-.32-.25-.67-.65-1.03-1.22l1.2-.66c.29.44.54.74.74.9.2.16.44.29.71.38.28.09.62.13,1.02.13.77,0,1.36-.21,1.78-.63.42-.42.63-1,.63-1.72v-.67h-.01c-.22.32-.56.61-1.01.86s-1.01.38-1.7.38c-.99,0-1.82-.36-2.51-1.08-.68-.72-1.03-1.6-1.03-2.66s.34-1.96,1.01-2.68c.68-.73,1.57-1.09,2.68-1.09.56,0,1.08.12,1.55.36.47.24.82.53,1.05.88h.36l-.36.48v-1.56h1.4v6.66c0,1.15-.34,2.06-1.01,2.72-.67.66-1.62.99-2.85.99ZM-118.32,2044.21c.7,0,1.28-.23,1.75-.68.47-.45.7-1.06.69-1.82,0-.75-.24-1.35-.7-1.8-.46-.45-1.04-.67-1.74-.67s-1.27.23-1.73.69c-.46.46-.68,1.06-.68,1.79s.23,1.35.69,1.8c.46.46,1.03.68,1.73.68Z"/>
        <path class="cls-4" d="M-111.4,2037.2c-.26,0-.48-.09-.66-.27s-.27-.41-.27-.67.09-.48.27-.66.4-.27.66-.27c.27,0,.5.09.68.27s.27.4.27.66-.09.48-.27.67-.41.27-.68.27ZM-112.13,2045.55v-7.45h1.47v7.45h-1.47Z"/>
        <path class="cls-4" d="M-105.77,2045.71c-.52,0-.97-.06-1.34-.19s-.69-.31-.96-.54c-.27-.23-.55-.62-.86-1.16l1.12-.58c.25.4.46.68.62.83.16.15.36.27.59.35.23.08.51.12.84.12.42,0,.76-.09,1.03-.26s.41-.42.41-.72c0-.32-.12-.56-.34-.72-.23-.16-.68-.32-1.33-.48-.99-.24-1.68-.54-2.06-.9s-.57-.82-.57-1.38c0-.65.26-1.16.79-1.55.53-.39,1.21-.58,2.03-.58.41,0,.76.05,1.06.14.3.09.57.23.81.42s.52.52.85.99l-1.05.65c-.22-.32-.41-.54-.56-.66-.15-.12-.32-.21-.51-.27s-.4-.09-.64-.09c-.42,0-.75.08-1,.26s-.36.38-.36.63c0,.3.13.53.39.68.26.15.72.31,1.39.47.92.22,1.58.5,1.96.83.39.34.58.83.58,1.47,0,.7-.27,1.25-.8,1.65-.54.4-1.23.59-2.09.59Z"/>
        <path class="cls-4" d="M-102.19,2039.33v-1.22h4.4v1.22h-4.4ZM-99.07,2045.71c-.56,0-1.03-.16-1.4-.49-.37-.33-.55-.87-.55-1.62v-7.35h1.46v7.22c0,.37.07.63.22.78.14.15.35.22.62.22.12,0,.23,0,.33-.03.1-.02.3-.07.58-.16v1.2c-.31.1-.55.16-.72.19-.17.03-.34.04-.52.04Z"/>
        <path class="cls-4" d="M-95.26,2037.2c-.26,0-.48-.09-.66-.27s-.27-.41-.27-.67.09-.48.27-.66.4-.27.66-.27c.27,0,.5.09.68.27s.27.4.27.66-.09.48-.27.67-.41.27-.68.27ZM-95.99,2045.55v-7.45h1.47v7.45h-1.47Z"/>
        <path class="cls-4" d="M-88.79,2045.71c-1.11,0-2.02-.37-2.75-1.1-.73-.73-1.09-1.66-1.09-2.79s.37-2.05,1.1-2.78c.73-.73,1.65-1.09,2.75-1.09.53,0,1,.08,1.41.23.41.15.77.37,1.08.64.31.28.62.71.92,1.31l-1.29.53c-.21-.37-.4-.64-.59-.82s-.4-.31-.65-.42c-.25-.1-.54-.15-.86-.15-.67,0-1.24.24-1.72.72s-.71,1.09-.71,1.83.24,1.36.71,1.84c.47.48,1.05.72,1.72.72.31,0,.58-.05.82-.15.24-.1.46-.25.66-.45s.4-.48.59-.85l1.3.53c-.25.53-.53.95-.84,1.25-.32.3-.68.54-1.09.72-.41.18-.9.27-1.48.27Z"/>
        <path class="cls-4" d="M-79.98,2045.55v-10.2h1.93l3.42,7.99h0l3.45-7.99h1.91v10.2h-1.49v-7.75s0,0,0,0l-3.29,7.75h-1.19l-3.23-7.67h0v.44s0,7.23,0,7.23h-1.52Z"/>
        <path class="cls-4" d="M-64.61,2045.71c-.82,0-1.49-.22-2.01-.66-.53-.44-.79-1.01-.79-1.73,0-.75.29-1.35.87-1.79.58-.45,1.33-.67,2.27-.67.37,0,.74.04,1.11.12.38.08.71.19.99.33v-.46c0-.53-.18-.94-.55-1.23-.37-.29-.8-.44-1.32-.44-.28,0-.53.04-.74.11-.22.07-.41.17-.58.28-.17.12-.43.34-.77.68l-1.01-.81c.44-.44.8-.75,1.08-.93.28-.18.6-.32.94-.41s.76-.14,1.25-.14c.94,0,1.7.25,2.28.76.58.51.86,1.2.86,2.07v4.77h-1.41v-1.56l.36.39h-.36c-.26.43-.61.76-1.04.99s-.9.34-1.42.34ZM-64.33,2044.51c.65,0,1.17-.23,1.56-.68.39-.46.58-.92.58-1.38v-.07c-.22-.14-.5-.26-.84-.34-.34-.09-.7-.13-1.08-.13-.57,0-1.03.12-1.36.34-.33.23-.5.56-.5,1,0,.4.15.71.45.93.3.22.69.33,1.18.33Z"/>
        <path class="cls-4" d="M-58.71,2038.11h1.43v1.32l-.19-.19h.19c.23-.38.57-.68,1-.92.43-.24.91-.36,1.41-.36.84,0,1.49.26,1.95.77.47.51.7,1.2.7,2.06v4.78h-1.46v-4.47c0-.55-.13-.98-.4-1.31-.27-.33-.69-.5-1.26-.5-.53,0-.98.19-1.35.57s-.56.87-.56,1.48v4.23h-1.47v-7.45Z"/>
        <path class="cls-4" d="M-47.82,2045.71c-.82,0-1.49-.22-2.01-.66-.53-.44-.79-1.01-.79-1.73,0-.75.29-1.35.87-1.79.58-.45,1.33-.67,2.27-.67.37,0,.74.04,1.11.12.38.08.71.19.99.33v-.46c0-.53-.18-.94-.55-1.23-.37-.29-.8-.44-1.32-.44-.28,0-.53.04-.74.11-.22.07-.41.17-.58.28-.17.12-.43.34-.77.68l-1.01-.81c.44-.44.8-.75,1.08-.93.28-.18.6-.32.94-.41s.76-.14,1.25-.14c.94,0,1.7.25,2.28.76.58.51.86,1.2.86,2.07v4.77h-1.41v-1.56l.36.39h-.36c-.26.43-.61.76-1.04.99s-.9.34-1.42.34ZM-47.54,2044.51c.65,0,1.17-.23,1.56-.68.39-.46.58-.92.58-1.38v-.07c-.22-.14-.5-.26-.84-.34-.34-.09-.7-.13-1.08-.13-.57,0-1.03.12-1.36.34-.33.23-.5.56-.5,1,0,.4.15.71.45.93.3.22.69.33,1.18.33Z"/>
        <path class="cls-4" d="M-38.53,2048.48c-.57,0-1.08-.07-1.51-.2-.43-.13-.81-.32-1.13-.57-.32-.25-.67-.65-1.03-1.22l1.2-.66c.29.44.54.74.74.9.2.16.44.29.71.38.28.09.62.13,1.02.13.77,0,1.36-.21,1.78-.63.42-.42.63-1,.63-1.72v-.67h-.01c-.22.32-.56.61-1.01.86s-1.01.38-1.7.38c-.99,0-1.82-.36-2.51-1.08-.68-.72-1.03-1.6-1.03-2.66s.34-1.96,1.01-2.68c.68-.73,1.57-1.09,2.68-1.09.56,0,1.08.12,1.55.36.47.24.82.53,1.05.88h.36l-.36.48v-1.56h1.4v6.66c0,1.15-.34,2.06-1.01,2.72-.67.66-1.62.99-2.85.99ZM-38.5,2044.21c.7,0,1.28-.23,1.75-.68.47-.45.7-1.06.69-1.82,0-.75-.24-1.35-.7-1.8-.46-.45-1.04-.67-1.74-.67s-1.27.23-1.73.69c-.46.46-.68,1.06-.68,1.79s.23,1.35.69,1.8c.46.46,1.03.68,1.73.68Z"/>
        <path class="cls-4" d="M-29.09,2045.71c-1.09,0-2.01-.37-2.75-1.1-.75-.73-1.12-1.66-1.12-2.78s.37-2.05,1.11-2.78,1.65-1.1,2.71-1.1,1.97.34,2.64,1.01c.67.67,1.01,1.53,1.01,2.56v.66h-6.72v-1.02h5.3c-.02-.56-.24-1.02-.64-1.38-.41-.37-.93-.55-1.58-.55s-1.25.25-1.73.74c-.48.49-.71,1.12-.71,1.88s.25,1.42.76,1.9c.51.48,1.09.73,1.76.73.35,0,.65-.05.91-.15.26-.1.5-.24.71-.43s.43-.46.65-.82l1.13.55c-.27.52-.57.92-.89,1.21s-.69.51-1.09.66c-.41.15-.9.22-1.46.22Z"/>
        <path class="cls-4" d="M-23.88,2045.55v-7.45h1.43v1.28l-.15-.16h.16c.22-.37.54-.67.95-.92.41-.24.88-.36,1.41-.36s1.02.14,1.45.43c.42.29.7.64.83,1.08.29-.49.66-.87,1.1-1.12s.92-.38,1.45-.38c.8,0,1.43.25,1.88.76.45.51.68,1.16.68,1.98v4.87h-1.46v-4.47c0-.57-.13-1.01-.4-1.32-.26-.32-.64-.48-1.12-.48s-.94.19-1.32.57c-.38.38-.57.88-.57,1.49v4.21h-1.46v-4.46c0-.55-.13-1-.39-1.33-.26-.33-.64-.5-1.13-.5s-.94.19-1.31.58c-.37.39-.56.88-.56,1.49v4.21h-1.47Z"/>
        <path class="cls-4" d="M-7.24,2045.71c-1.09,0-2.01-.37-2.75-1.1-.75-.73-1.12-1.66-1.12-2.78s.37-2.05,1.11-2.78,1.65-1.1,2.71-1.1,1.97.34,2.64,1.01c.67.67,1.01,1.53,1.01,2.56v.66h-6.72v-1.02h5.3c-.02-.56-.24-1.02-.64-1.38-.41-.37-.93-.55-1.58-.55s-1.25.25-1.73.74c-.48.49-.71,1.12-.71,1.88s.25,1.42.76,1.9c.51.48,1.09.73,1.76.73.35,0,.65-.05.91-.15.26-.1.5-.24.71-.43s.43-.46.65-.82l1.13.55c-.27.52-.57.92-.89,1.21s-.69.51-1.09.66c-.41.15-.9.22-1.46.22Z"/>
        <path class="cls-4" d="M-2.03,2038.11H-.6v1.32l-.19-.19h.19c.23-.38.57-.68,1-.92.43-.24.91-.36,1.41-.36.84,0,1.49.26,1.95.77.47.51.7,1.2.7,2.06v4.78h-1.46v-4.47c0-.55-.13-.98-.4-1.31-.27-.33-.69-.5-1.26-.5-.53,0-.98.19-1.35.57s-.56.87-.56,1.48v4.23h-1.47v-7.45Z"/>
        <path class="cls-4" d="M5.56,2039.33v-1.22h4.4v1.22h-4.4ZM8.68,2045.71c-.56,0-1.03-.16-1.4-.49-.37-.33-.55-.87-.55-1.62v-7.35h1.46v7.22c0,.37.07.63.22.78.14.15.35.22.62.22.12,0,.23,0,.33-.03.1-.02.3-.07.58-.16v1.2c-.31.1-.55.16-.72.19-.17.03-.34.04-.52.04Z"/>
        <path class="cls-4" d="M15.39,2045.55v-10.2h6.39v1.38h-4.81v7.44h4.86v1.37h-6.44ZM16.41,2041.06v-1.3h4.93v1.3h-4.93Z"/>
        <path class="cls-4" d="M27.07,2045.71c-1.11,0-2.02-.37-2.75-1.1-.73-.73-1.09-1.66-1.09-2.79s.37-2.05,1.1-2.78c.73-.73,1.65-1.09,2.75-1.09.53,0,1,.08,1.41.23.41.15.77.37,1.08.64.31.28.62.71.92,1.31l-1.29.53c-.21-.37-.4-.64-.59-.82s-.4-.31-.65-.42c-.25-.1-.54-.15-.86-.15-.67,0-1.24.24-1.72.72s-.71,1.09-.71,1.83.24,1.36.71,1.84c.47.48,1.05.72,1.72.72.31,0,.58-.05.82-.15.24-.1.46-.25.66-.45s.4-.48.59-.85l1.3.53c-.25.53-.53.95-.84,1.25-.32.3-.68.54-1.09.72-.41.18-.9.27-1.48.27Z"/>
        <path class="cls-4" d="M35.47,2045.71c-1.11,0-2.03-.38-2.77-1.13-.74-.75-1.11-1.67-1.11-2.75s.37-1.99,1.11-2.75c.74-.75,1.66-1.13,2.76-1.13s2.03.38,2.77,1.14c.75.76,1.12,1.67,1.12,2.74s-.37,1.99-1.12,2.75-1.67,1.13-2.78,1.13ZM35.47,2044.34c.67,0,1.24-.24,1.72-.71.48-.48.72-1.07.72-1.79s-.24-1.32-.72-1.79-1.05-.71-1.72-.71-1.24.24-1.71.71c-.48.47-.72,1.07-.72,1.79s.24,1.31.71,1.79c.47.48,1.05.71,1.72.71Z"/>
        <path class="cls-4" d="M43.6,2045.71c-.52,0-.97-.06-1.34-.19s-.69-.31-.96-.54c-.27-.23-.55-.62-.86-1.16l1.12-.58c.25.4.46.68.62.83.16.15.36.27.59.35.23.08.51.12.84.12.42,0,.76-.09,1.03-.26s.41-.42.41-.72c0-.32-.12-.56-.34-.72-.23-.16-.68-.32-1.33-.48-.99-.24-1.68-.54-2.06-.9s-.57-.82-.57-1.38c0-.65.26-1.16.79-1.55.53-.39,1.21-.58,2.03-.58.41,0,.76.05,1.06.14.3.09.57.23.81.42s.52.52.85.99l-1.05.65c-.22-.32-.41-.54-.56-.66-.15-.12-.32-.21-.51-.27s-.4-.09-.64-.09c-.42,0-.75.08-1,.26s-.36.38-.36.63c0,.3.13.53.39.68.26.15.72.31,1.39.47.92.22,1.58.5,1.96.83.39.34.58.83.58,1.47,0,.7-.27,1.25-.8,1.65-.54.4-1.23.59-2.09.59Z"/>
        <path class="cls-4" d="M48.87,2048.33s0,0,0,0l1.56-3.38v.69s-3.18-7.53-3.18-7.53h1.54l2.11,5.21.14.37h.01l.13-.37,2.09-5.21h1.52l-4.36,10.22s0,0,0,0h-1.57Z"/>
        <path class="cls-4" d="M58.58,2045.71c-.52,0-.97-.06-1.34-.19s-.69-.31-.96-.54c-.27-.23-.55-.62-.86-1.16l1.12-.58c.25.4.46.68.62.83.16.15.36.27.59.35.23.08.51.12.84.12.42,0,.76-.09,1.03-.26s.41-.42.41-.72c0-.32-.12-.56-.34-.72-.23-.16-.68-.32-1.33-.48-.99-.24-1.68-.54-2.06-.9s-.57-.82-.57-1.38c0-.65.26-1.16.79-1.55.53-.39,1.21-.58,2.03-.58.41,0,.76.05,1.06.14.3.09.57.23.81.42s.52.52.85.99l-1.05.65c-.22-.32-.41-.54-.56-.66-.15-.12-.32-.21-.51-.27s-.4-.09-.64-.09c-.42,0-.75.08-1,.26s-.36.38-.36.63c0,.3.13.53.39.68.26.15.72.31,1.39.47.92.22,1.58.5,1.96.83.39.34.58.83.58,1.47,0,.7-.27,1.25-.8,1.65-.54.4-1.23.59-2.09.59Z"/>
        <path class="cls-4" d="M62.15,2039.33v-1.22h4.4v1.22h-4.4ZM65.28,2045.71c-.56,0-1.03-.16-1.4-.49-.37-.33-.55-.87-.55-1.62v-7.35h1.46v7.22c0,.37.07.63.22.78.14.15.35.22.62.22.12,0,.23,0,.33-.03.1-.02.3-.07.58-.16v1.2c-.31.1-.55.16-.72.19-.17.03-.34.04-.52.04Z"/>
        <path class="cls-4" d="M71.57,2045.71c-1.09,0-2.01-.37-2.75-1.1-.75-.73-1.12-1.66-1.12-2.78s.37-2.05,1.11-2.78,1.65-1.1,2.71-1.1,1.97.34,2.64,1.01c.67.67,1.01,1.53,1.01,2.56v.66h-6.72v-1.02h5.3c-.02-.56-.24-1.02-.64-1.38-.41-.37-.93-.55-1.58-.55s-1.25.25-1.73.74c-.48.49-.71,1.12-.71,1.88s.25,1.42.76,1.9c.51.48,1.09.73,1.76.73.35,0,.65-.05.91-.15.26-.1.5-.24.71-.43s.43-.46.65-.82l1.13.55c-.27.52-.57.92-.89,1.21s-.69.51-1.09.66c-.41.15-.9.22-1.46.22Z"/>
        <path class="cls-4" d="M76.78,2045.55v-7.45h1.43v1.28l-.15-.16h.16c.22-.37.54-.67.95-.92.41-.24.88-.36,1.41-.36s1.02.14,1.45.43c.42.29.7.64.83,1.08.29-.49.66-.87,1.1-1.12s.92-.38,1.45-.38c.8,0,1.43.25,1.88.76.45.51.68,1.16.68,1.98v4.87h-1.46v-4.47c0-.57-.13-1.01-.4-1.32-.26-.32-.64-.48-1.12-.48s-.94.19-1.32.57c-.38.38-.57.88-.57,1.49v4.21h-1.46v-4.46c0-.55-.13-1-.39-1.33-.26-.33-.64-.5-1.13-.5s-.94.19-1.31.58c-.37.39-.56.88-.56,1.49v4.21h-1.47Z"/>
      </g>
      <path class="cls-6" d="M1177.13,231.84c21.06-51.51,80.07-106.29,30.02-163.01-49.7-56.34-110.41-8.11-165.27,8.05-144.9,42.68-291.19,81.42-433.92,130.47-93.83,32.25-146.19,18.11-164.81-87.49-9.45-53.57-11.36-140.22-98.02-115.53-84.81,24.17-48.4,101.2-23.84,150.05,51.04,101.5,20.59,147.43-85.33,162.73-31.13,4.5-61.98,17.49-90.58,31.44C92.65,374.27-1.86,350.88.03,442.47c1.66,80.46,87.12,89.53,143.24,106.4,245.94,73.93,419.2,207.48,442.62,484.04,3.77,44.56,26.45,87.38,39.11,131.37,9.67,33.59,27.4,58.23,64.45,61.04,38.05,2.89,58.31-22.42,72.51-52.68,17.51-37.29,37.05-74.33,48.6-113.57,40.33-137.15,105.8-205.94,246.29-102.78,17.04,12.51,41.91,14.35,50.77,17.18,46.19-7.13,62.91-27.21,64.02-58.16,1.88-52.38-38.09-73.16-77.49-83.02-139.56-34.94-152.13-104.56-84.77-224.49,66.94-119.18,115.81-248.87,167.75-375.94ZM275.46,458.98q115.25-50.78,146.38,58.34c-57.05.13-100.97-27.1-146.38-58.34ZM698.95,1021.45c-32.45-100.14-64.07-199.34-102.2-296.81,16.14,8.71,181.91,120.1,184.12,117.32-38.4,53.89-66.37,115.18-81.92,179.49ZM847.92,653.09c-28.09,59.52-210.35,9.76-257.08-68.19-92.33-154.02-72.78-209.2,97.15-263.28,107.17-34.11,215.57-64.35,352.24-104.87-71.62,163.75-128.7,301.59-192.31,436.35Z"/>
    </g>
  </g>
</svg>