<?xml version="1.0" encoding="UTF-8"?>
<svg xmlns="http://www.w3.org/2000/svg" version="1.1" viewBox="0 0 1125 2436">
  <defs>
    <style>
      .cls-1 {
        fill: #f39422;
        isolation: isolate;
        opacity: .2;
      }
    </style>
  </defs>
  <!-- Generator: Adobe Illustrator 28.6.0, SVG Export Plug-In . SVG Version: 1.2.0 Build 709)  -->
  <g>
    <g id="Layer_1">
      <g id="Layer_1-2" data-name="Layer_1">
        <path class="cls-1" d="M1118.2,846.6c22.9-55.9,87-115.4,32.6-177-54-61.2-119.9-8.8-179.5,8.7-157.4,46.3-316.2,88.4-471.3,141.7-101.9,35-158.8,19.7-179-95-10.3-58.2-12.3-152.3-106.5-125.5-92.1,26.2-52.6,109.9-25.9,163,55.4,110.2,22.4,160.1-92.7,176.7-33.8,4.9-67.3,19-98.4,34.1-57.3,27.9-159.9,2.5-157.9,102,1.8,87.4,94.6,97.2,155.6,115.6,267.1,80.3,455.3,225.3,480.7,525.7,4.1,48.4,28.7,94.9,42.5,142.7,10.5,36.5,29.8,63.2,70,66.3,41.3,3.1,63.3-24.3,78.7-57.2,19-40.5,40.2-80.7,52.8-123.3,43.8-149,114.9-223.7,267.5-111.6,18.5,13.6,45.5,15.6,55.1,18.7,50.2-7.7,68.3-29.5,69.5-63.2,2-56.9-41.4-79.5-84.2-90.2-151.6-37.9-165.2-113.6-92.1-243.8,72.7-129.4,125.8-270.3,182.2-408.3h0ZM138.9,1093.3c83.4-36.8,136.4-15.6,159,63.4-62,.1-109.7-29.4-159-63.4ZM598.8,1704.1c-35.2-108.8-69.6-216.5-111-322.3,17.5,9.5,197.6,130.4,200,127.4-41.7,58.5-72.1,125.1-89,194.9h0ZM760.6,1304.1c-30.5,64.6-228.4,10.6-279.2-74.1-100.3-167.3-79-227.2,105.5-285.9,116.4-37,234.1-69.9,382.6-113.9-77.8,177.8-139.8,327.5-208.9,473.9h0Z"/>
      </g>
    </g>
  </g>
</svg>